<svg xmlns="http://www.w3.org/2000/svg" id="svg378" version="1.1" viewBox="0 0 1169 330"><g id="layer1"><path id="path462" fill="#fff" fill-rule="evenodd" d="M44 176L190 30a17 17 0 00-24-25L5 166a17 17 0 001 25l133 134a17 17 0 0025 0l135-135a17 17 0 00-1-26l-97-97a17 17 0 10-25 24l84 84v4L153 286h-3L44 180v-4" clip-rule="evenodd" image-rendering="optimizeQuality" shape-rendering="geometricPrecision" text-rendering="geometricPrecision"/><circle id="ellipse464" cx="104.6" cy="179.1" r="24.1" fill="#00afef" fill-rule="evenodd" class="fil1" clip-rule="evenodd" image-rendering="optimizeQuality" shape-rendering="geometricPrecision" text-rendering="geometricPrecision"/><circle id="ellipse466" cx="199.4" cy="179.1" r="24.1" fill="#00afef" fill-rule="evenodd" class="fil1" clip-rule="evenodd" image-rendering="optimizeQuality" shape-rendering="geometricPrecision" text-rendering="geometricPrecision"/><path id="path472" fill="#fff" fill-rule="nonzero" d="M349 230h73c34 0 45-17 45-35 0-15-7-28-24-33 12-5 19-15 19-29 0-22-16-33-43-33h-70v130m35-102h25c11 0 16 4 16 12s-6 12-16 12h-25v-24m0 48h30c12 0 17 6 17 13s-5 13-17 13h-30v-26" class="fil2" clip-rule="evenodd" image-rendering="optimizeQuality" shape-rendering="geometricPrecision" text-rendering="geometricPrecision"/><path id="polygon474" fill="#fff" fill-rule="nonzero" d="M523 100h-36v130h36z" class="fil2" clip-rule="evenodd" image-rendering="optimizeQuality" shape-rendering="geometricPrecision" text-rendering="geometricPrecision"/><path id="polygon476" fill="#fff" fill-rule="nonzero" d="M578 230h36V129h37v-29H540v29h38z" class="fil2" clip-rule="evenodd" image-rendering="optimizeQuality" shape-rendering="geometricPrecision" text-rendering="geometricPrecision"/><path id="path478" fill="#fff" fill-rule="nonzero" d="M723 98c-31 0-55 13-55 42 0 8 2 14 5 18 3 5 8 9 13 11 5 3 14 6 21 8l12 3 21 6c3 2 4 4 4 8 0 5-6 8-13 8-18 0-36-5-53-14l-15 26c18 12 39 18 64 18 34 0 54-15 54-43 0-7-1-14-4-18-3-5-9-10-14-12l-21-9-13-3c-10-3-16-4-19-6-2-1-4-3-4-5 0-6 5-9 13-9 13 0 30 5 45 13l15-28c-16-9-35-14-56-14" class="fil2" clip-rule="evenodd" image-rendering="optimizeQuality" shape-rendering="geometricPrecision" text-rendering="geometricPrecision"/><path id="polygon480" fill="#fff" fill-rule="nonzero" d="M802 230h99v-31h-64v-99h-35z" class="fil2" clip-rule="evenodd" image-rendering="optimizeQuality" shape-rendering="geometricPrecision" text-rendering="geometricPrecision"/><path id="polygon482" fill="#fff" fill-rule="nonzero" d="M1027 199h-73v-20h67v-30h-67v-18h72v-31H919v130h108z" class="fil2" clip-rule="evenodd" image-rendering="optimizeQuality" shape-rendering="geometricPrecision" text-rendering="geometricPrecision"/><path id="path484" fill="#fff" fill-rule="nonzero" d="M1047 230h35v-39h15l6-1 26 40h40l-29-44c18-6 26-19 26-41 0-32-18-45-60-45h-59v130m61-99c15 0 21 5 21 16 0 12-6 17-21 17h-26v-33h26" class="fil2" clip-rule="evenodd" image-rendering="optimizeQuality" shape-rendering="geometricPrecision" text-rendering="geometricPrecision"/></g></svg>